<?xml version="1.0" encoding="UTF-8" standalone="no"?>
<svg width="45px" height="45px" viewBox="0 0 45 45" version="1.1" xmlns="http://www.w3.org/2000/svg" xmlns:xlink="http://www.w3.org/1999/xlink" xmlns:sketch="http://www.bohemiancoding.com/sketch/ns">
    <!-- Generator: Sketch 3.3 (11970) - http://www.bohemiancoding.com/sketch -->
    <title>30-tage-erfolgsserie</title>
    <desc>Created with Sketch.</desc>
    <defs></defs>
    <g id="Page-1" stroke="none" stroke-width="1" fill="none" fill-rule="evenodd" sketch:type="MSPage">
        <g id="30-tage-erfolgsserie" sketch:type="MSArtboardGroup" fill="#999999">
            <path d="M0,0 L5,0 L5,5 L0,5 L0,0 L0,0 Z M10,0 L15,0 L15,5 L10,5 L10,0 L10,0 Z M20,0 L25,0 L25,5 L20,5 L20,0 L20,0 Z M30,0 L35,0 L35,5 L30,5 L30,0 L30,0 Z M40,0 L45,0 L45,5 L40,5 L40,0 L40,0 Z M0,8 L5,8 L5,13 L0,13 L0,8 L0,8 Z M10,8 L15,8 L15,13 L10,13 L10,8 L10,8 Z M20,8 L25,8 L25,13 L20,13 L20,8 L20,8 Z M30,8 L35,8 L35,13 L30,13 L30,8 L30,8 Z M40,8 L45,8 L45,13 L40,13 L40,8 L40,8 Z M0,16 L5,16 L5,21 L0,21 L0,16 L0,16 Z M10,16 L15,16 L15,21 L10,21 L10,16 L10,16 Z M20,16 L25,16 L25,21 L20,21 L20,16 L20,16 Z M30,16 L35,16 L35,21 L30,21 L30,16 L30,16 Z M40,16 L45,16 L45,21 L40,21 L40,16 L40,16 Z M0,24 L5,24 L5,29 L0,29 L0,24 L0,24 Z M10,24 L15,24 L15,29 L10,29 L10,24 L10,24 Z M20,24 L25,24 L25,29 L20,29 L20,24 L20,24 Z M30,24 L35,24 L35,29 L30,29 L30,24 L30,24 Z M40,24 L45,24 L45,29 L40,29 L40,24 L40,24 Z M0,32 L5,32 L5,37 L0,37 L0,32 L0,32 Z M10,32 L15,32 L15,37 L10,37 L10,32 L10,32 Z M20,32 L25,32 L25,37 L20,37 L20,32 L20,32 Z M30,32 L35,32 L35,37 L30,37 L30,32 L30,32 Z M40,32 L45,32 L45,37 L40,37 L40,32 L40,32 Z M0,40 L5,40 L5,45 L0,45 L0,40 L0,40 Z M10,40 L15,40 L15,45 L10,45 L10,40 L10,40 Z M20,40 L25,40 L25,45 L20,45 L20,40 L20,40 Z M30,40 L35,40 L35,45 L30,45 L30,40 L30,40 Z M40,40 L45,40 L45,45 L40,45 L40,40 L40,40 Z" id="achievement" sketch:type="MSShapeGroup"></path>
        </g>
    </g>
</svg>