<?xml version="1.0" encoding="UTF-8" standalone="no"?>
<svg width="45px" height="45px" viewBox="0 0 45 45" version="1.1" xmlns="http://www.w3.org/2000/svg" xmlns:xlink="http://www.w3.org/1999/xlink" xmlns:sketch="http://www.bohemiancoding.com/sketch/ns">
    <!-- Generator: Sketch 3.3 (11970) - http://www.bohemiancoding.com/sketch -->
    <title>guter-start</title>
    <desc>Created with Sketch.</desc>
    <defs></defs>
    <g id="Page-1" stroke="none" stroke-width="1" fill="none" fill-rule="evenodd" sketch:type="MSPage">
        <g id="guter-start" sketch:type="MSArtboardGroup" fill="#000000">
            <path d="M31.4980574,5.44804894 C28.3369567,7.28012142 24.9917522,9.67289966 21.8979379,12.7680324 C19.9202173,14.7471155 18.3286796,16.6698554 17.0463695,18.4716908 L9.20699263,19.9203052 L0,29.1341539 L8.21052909,29.3897194 L13.9925931,23.6076554 C11.9516293,27.8366373 11.7715689,30.6403859 11.7715689,30.6403859 L14.3581637,33.2242559 C14.3581637,33.2242559 17.2512174,32.9493528 21.5103486,30.8877768 L15.6046551,36.7867021 L15.8630773,45 L25.0742011,35.7916889 L26.5283092,27.9136806 C28.347944,26.6382705 30.2721344,25.0549513 32.2292427,23.0992493 C35.3243755,20.0027981 37.7157473,16.6588681 39.5492262,13.4978113 C37.5288747,13.086841 35.67619,12.2457823 34.2139073,10.787543 C32.7514928,9.32108514 31.9048965,7.46835647 31.4980574,5.44804894 L31.4980574,5.44804894 L31.4980574,5.44804894 Z M34.5491969,3.8125619 C34.7691194,5.79028251 35.4260743,7.38450112 36.5172487,8.47031368 C37.60583,9.56838811 39.1972798,10.2239805 41.1819444,10.4411782 C44.0818981,4.58079648 45,-0.00413123861 45,-0.00413123861 C45,-0.00413123861 40.4150723,0.912564239 34.5491969,3.8125619 L34.5491969,3.8125619 L34.5491969,3.8125619 Z" id="achievement" sketch:type="MSShapeGroup"></path>
        </g>
    </g>
</svg>