<?xml version="1.0" encoding="UTF-8" standalone="no"?>
<svg width="45px" height="45px" viewBox="0 0 45 45" version="1.1" xmlns="http://www.w3.org/2000/svg" xmlns:xlink="http://www.w3.org/1999/xlink" xmlns:sketch="http://www.bohemiancoding.com/sketch/ns">
    <!-- Generator: Sketch 3.3 (11970) - http://www.bohemiancoding.com/sketch -->
    <title>habit-erfolgreich-abgeschlossen</title>
    <desc>Created with Sketch.</desc>
    <defs></defs>
    <g id="Page-1" stroke="none" stroke-width="1" fill="none" fill-rule="evenodd" sketch:type="MSPage">
        <g id="habit-erfolgreich-abgeschlossen" sketch:type="MSArtboardGroup" fill="#000000">
            <path d="M21.4285714,42.8571429 L21.4285714,32.1428522 C14.3372796,32.1367119 8.57142857,26.3893815 8.57142857,19.3005746 L8.57142857,19.2857143 C1.07142857,16.0714286 0,0 0,0 L8.57142857,0 L35.3744726,0 L36.4285714,0 L45,0 C45,0 43.9285714,16.0714286 36.4285714,19.2857143 L36.4285714,19.2857143 L36.4285714,19.3005746 C36.4285714,26.3925724 30.6732861,32.1367245 23.5714286,32.1428522 L23.5714286,32.1428526 L23.5714286,42.8571429 L32.1428571,42.8571429 L32.1428571,45 L12.8571429,45 L12.8571429,42.8571429 L21.4285714,42.8571429 L21.4285714,42.8571429 Z M8.57142857,2.14285714 L8.57142857,16.9285584 C3.54466029,13.3299474 2.35715593,2.14285714 2.35715593,2.14285714 L8.57142857,2.14285714 L8.57142857,2.14285714 Z M36.3909041,2.14285714 L36.3909041,16.8863788 C41.4176724,13.2877678 42.6060268,2.14285714 42.6060268,2.14285714 L36.3909041,2.14285714 L36.3909041,2.14285714 Z" id="achievement" sketch:type="MSShapeGroup"></path>
        </g>
    </g>
</svg>