<?xml version="1.0" encoding="UTF-8" standalone="no"?>
<svg width="45px" height="45px" viewBox="0 0 45 45" version="1.1" xmlns="http://www.w3.org/2000/svg" xmlns:xlink="http://www.w3.org/1999/xlink" xmlns:sketch="http://www.bohemiancoding.com/sketch/ns">
    <!-- Generator: Sketch 3.3 (11970) - http://www.bohemiancoding.com/sketch -->
    <title>halbzeit</title>
    <desc>Created with Sketch.</desc>
    <defs></defs>
    <g id="Page-1" stroke="none" stroke-width="1" fill="none" fill-rule="evenodd" sketch:type="MSPage">
        <g id="halbzeit" sketch:type="MSArtboardGroup" fill="#8E9BA5">
            <path d="M16.6406248,7.26564375 C9.60937481,7.26564375 2.57812481,10.7812687 2.57812481,16.6406062 L2.57812481,21.3281437 L42.4218752,21.3281437 L42.4218752,16.6406062 C42.4218279,10.7812687 35.3906252,7.26564375 28.3593746,7.26564375 L16.6406248,7.26564375 L16.6406248,7.26564375 Z M17.8124996,9.60935625 C18.4617186,9.60935625 18.984375,10.1320313 18.984375,10.7812688 C18.984375,11.43045 18.4617186,11.953125 17.8124996,11.953125 C17.1632813,11.953125 16.6406248,11.43045 16.6406248,10.7812688 C16.6406248,10.1320313 17.1632813,9.60935625 17.8124996,9.60935625 L17.8124996,9.60935625 L17.8124996,9.60935625 Z M27.1874998,9.60935625 C27.8367188,9.60935625 28.3593746,10.1320313 28.3593746,10.7812688 C28.3593746,11.43045 27.8367188,11.953125 27.1874998,11.953125 C26.5382809,11.953125 26.015625,11.43045 26.015625,10.7812688 C26.015625,10.1320313 26.5382809,9.60935625 27.1874998,9.60935625 L27.1874998,9.60935625 L27.1874998,9.60935625 Z M13.1249998,14.2968937 C13.7742188,14.2968937 14.2968746,14.8195125 14.2968746,15.46875 C14.2968746,16.1179875 13.7742188,16.6406062 13.1249998,16.6406062 C12.4757809,16.6406062 11.953125,16.1179875 11.953125,15.46875 C11.953125,14.8195125 12.4757809,14.2968937 13.1249998,14.2968937 L13.1249998,14.2968937 L13.1249998,14.2968937 Z M22.5,14.2968937 C23.1492184,14.2968937 23.6718748,14.8195125 23.6718748,15.46875 C23.6718748,16.1179875 23.1492184,16.6406062 22.5,16.6406062 C21.8507811,16.6406062 21.3281246,16.1179875 21.3281246,15.46875 C21.3281246,14.8195125 21.8507811,14.2968937 22.5,14.2968937 L22.5,14.2968937 L22.5,14.2968937 Z M31.8749996,14.2968937 C32.5242186,14.2968937 33.046875,14.8195125 33.046875,15.46875 C33.046875,16.1179875 32.5242186,16.6406062 31.8749996,16.6406062 C31.2257812,16.6406062 30.7031248,16.1179875 30.7031248,15.46875 C30.7031248,14.8195125 31.2257813,14.2968937 31.8749996,14.2968937 L31.8749996,14.2968937 L31.8749996,14.2968937 Z M2.57812481,23.6718563 C1.40617969,23.6718563 0.234351563,24.8437125 0.234374625,26.015625 C0.23439825,27.1874813 1.40617969,28.3593375 2.57812481,28.3593375 L42.4218752,28.3593375 C43.5937736,28.3593375 44.7656018,27.1874813 44.7656248,26.015625 C44.7656721,24.8437125 43.5937736,23.6718563 42.4218752,23.6718563 L2.57812481,23.6718563 L2.57812481,23.6718563 Z M2.57812481,30.7031063 L2.57812481,33.046875 C2.57812481,35.3906438 4.92187444,37.7343563 7.26562463,37.7343563 L37.7343748,37.7343563 C40.078125,37.7343563 42.4218752,35.3906438 42.4218752,33.046875 L42.4218752,30.7031063 L2.57812481,30.7031063 L2.57812481,30.7031063 Z" id="rect13326-2-5-2-3" sketch:type="MSShapeGroup"></path>
        </g>
    </g>
</svg>